<svg xmlns="http://www.w3.org/2000/svg" viewBox="0 0 100 100" width="100" height="100">
  <defs>
    <linearGradient id="amora-grad" x1="0%" y1="0%" x2="100%" y2="100%">
      <stop offset="0%" stop-color="#FF3B5C" />
      <stop offset="50%" stop-color="#FF6B81" />
      <stop offset="100%" stop-color="#FF9AA2" />
    </linearGradient>
    <filter id="shadow" x="-10%" y="-10%" width="130%" height="130%">
      <feDropShadow dx="0" dy="4" stdDeviation="4" flood-color="#FF3B5C" flood-opacity="0.3" />
    </filter>
  </defs>
  <!-- Heart shape -->
  <path d="M50 85C50 85 18 56 18 35C18 21 28 12 40 12C46 12 48 15 50 17C52 15 54 12 60 12C72 12 82 21 82 35C82 56 50 85 50 85Z" fill="url(#amora-grad)" filter="url(#shadow)" />
  <!-- Elegant letter 'A' integrated inside -->
  <path d="M50 28C51.5 28 53 30 53.5 31.5L62 53C62.5 54.5 61.5 56 60 56C59 56 58.2 55.2 57.8 54.2L55.5 48H44.5L42.2 54.2C41.8 55.2 41 56 40 56C38.5 56 37.5 54.5 38 53L46.5 31.5C47 30 48.5 28 50 28ZM45.5 44H54.5L50 31.5L45.5 44Z" fill="#FFFFFF" />
</svg>
